<svg version="1.1" id="Layer_1" xmlns="http://www.w3.org/2000/svg" xmlns:xlink="http://www.w3.org/1999/xlink" x="0px" y="0px"
	 width="100%" viewBox="0 0 1976 303" enable-background="new 0 0 1976 303" xml:space="preserve">
<path fill="#FFFFFF" opacity="1.000000" stroke="none" 
	d="
M1977.000000,300.000000 
	C1977.000000,301.332916 1977.000000,302.665863 1977.000000,303.999390 
	C1503.976685,304.000000 1030.953369,304.000000 557.647217,303.600037 
	C571.264954,302.134552 585.184387,301.268799 599.061890,299.958618 
	C622.367981,297.758270 638.836426,283.914429 652.924011,266.858246 
	C664.484924,252.861130 666.727478,235.450516 666.825806,218.241577 
	C667.239807,145.829758 667.000366,73.414192 667.000000,1.000000 
	C672.356934,1.000000 677.713867,1.000000 683.531067,1.368314 
	C684.690857,2.986643 685.356995,4.256722 686.094849,5.483698 
	C697.232300,24.005850 708.367554,42.529381 719.527100,61.038246 
	C733.259521,83.814369 747.008179,106.580727 760.760986,129.344574 
	C771.933105,147.836853 782.997009,166.396317 794.360718,184.770233 
	C799.330505,192.805862 802.513245,200.732117 802.257690,210.730499 
	C801.525757,239.368912 802.000000,268.038147 802.000000,296.695282 
	C802.000000,298.438995 802.000000,300.182709 802.000000,301.633606 
	C836.138916,301.633606 869.534912,301.633606 903.000732,301.633606 
	C903.000732,268.110413 902.980591,234.956009 903.049377,201.801788 
	C903.053650,199.744659 903.194580,197.338669 904.222900,195.686996 
	C914.109009,179.808319 924.180847,164.044952 934.236938,148.272385 
	C944.471924,132.219055 954.803040,116.226784 964.995178,100.146355 
	C981.396790,74.269012 997.749146,48.360233 1014.054688,22.422213 
	C1018.494324,15.359764 1022.691528,8.144910 1027.000000,1.000000 
	C1035.690063,1.000000 1044.380005,1.000000 1053.520020,1.369240 
	C1041.921875,21.380405 1029.864014,41.016388 1017.831055,60.667496 
	C1013.567383,67.630569 1009.363953,74.630547 1004.744690,82.254692 
	C1042.323120,82.254692 1079.057495,82.254692 1116.187012,82.254692 
	C1116.187012,155.679642 1116.187012,228.732559 1116.187012,301.709473 
	C1148.650391,301.709473 1180.713745,301.709473 1213.176392,301.709473 
	C1213.176392,228.364609 1213.176392,155.311996 1213.176392,81.833221 
	C1245.637329,81.833221 1277.699341,81.833221 1310.000000,81.833221 
	C1310.000000,54.603786 1310.000000,27.801893 1310.000000,1.000000 
	C1339.023315,1.000000 1368.046753,1.000000 1397.442261,1.348851 
	C1388.469482,20.663198 1379.141602,39.637115 1369.775024,58.591938 
	C1357.961548,82.498291 1346.083984,106.373024 1334.294678,130.291214 
	C1323.081787,153.040176 1311.980957,175.844360 1300.767700,198.593109 
	C1288.977783,222.511826 1277.113647,246.393936 1265.280884,270.291565 
	C1260.136475,280.681183 1254.989380,291.069427 1249.656494,301.835693 
	C1284.725708,301.835693 1319.170532,301.835693 1353.980103,301.835693 
	C1359.331177,287.799042 1364.819214,273.722046 1370.016846,259.538696 
	C1371.274658,256.106537 1372.896606,254.888596 1376.681030,254.900604 
	C1424.334106,255.051880 1471.987793,254.999924 1519.641357,254.999924 
	C1522.965942,254.999924 1526.290527,254.999924 1529.444702,254.999924 
	C1537.032227,269.383057 1544.589111,283.476929 1551.875244,297.709381 
	C1553.380615,300.649933 1555.376221,301.061005 1558.214478,301.054260 
	C1586.706543,300.986786 1615.198853,300.941406 1643.690552,301.057129 
	C1649.034180,301.078827 1654.375000,301.841370 1660.521606,302.325409 
	C1659.462891,300.166901 1658.853394,298.899658 1658.223145,297.642914 
	C1614.315430,210.093018 1570.390381,122.551910 1526.516724,34.985043 
	C1520.875000,23.724930 1515.499023,12.331638 1510.000000,1.000009 
	C1563.690063,1.000000 1617.380005,1.000000 1671.534180,1.468657 
	C1671.998413,101.193718 1671.998413,200.450119 1671.998413,299.713409 
	C1701.608032,299.713409 1730.672729,299.713409 1759.939209,299.713409 
	C1759.939209,227.816025 1759.939209,156.204834 1759.939209,84.593666 
	C1763.148560,90.525131 1765.556396,96.705032 1767.985352,102.876610 
	C1775.991455,123.218582 1783.993042,143.562317 1792.018921,163.896393 
	C1801.698242,188.419159 1811.416016,212.926758 1821.088135,237.452332 
	C1828.754395,256.892059 1836.481812,276.309113 1843.922363,295.835175 
	C1845.251831,299.323822 1847.108521,300.075653 1850.516724,300.067322 
	C1892.677612,299.964172 1934.838867,300.000000 1977.000000,300.000000 
z"/>
<path fill="#119303" opacity="1.000000" stroke="none" 
	d="
M1.000000,302.000000 
	C1.000000,201.750015 1.000000,101.500031 1.000000,1.000000 
	C76.020706,1.000000 151.041702,1.000000 226.709656,1.398739 
	C245.689774,2.175858 263.462555,5.402748 280.626648,11.980545 
	C295.518433,17.687540 306.215759,28.149710 313.343658,41.982838 
	C319.666046,54.252609 321.953827,67.763802 321.974762,81.544945 
	C322.043610,126.864944 322.164551,172.186203 321.864410,217.504333 
	C321.803162,226.754715 320.739716,236.148285 318.847961,245.206345 
	C314.566132,265.708252 302.637024,280.915924 283.618622,289.616241 
	C262.545135,299.256744 239.708633,301.682922 216.935776,301.831543 
	C144.959869,302.301270 72.978966,302.001862 1.000000,302.000000 
M225.977081,214.471344 
	C229.873184,211.525467 230.919235,207.181427 230.934708,202.771805 
	C231.053360,168.967239 231.144592,135.160599 230.799255,101.359161 
	C230.760300,97.545624 228.539047,93.368820 226.308212,90.046371 
	C222.127304,83.819618 215.046188,83.129066 208.396698,83.092270 
	C173.094070,82.896912 137.789764,82.997719 102.486061,83.011353 
	C101.054657,83.011902 99.623322,83.167336 98.298676,83.244392 
	C98.298676,129.335098 98.298676,175.042023 98.298676,220.690430 
	C98.898308,220.830063 99.208282,220.965332 99.518326,220.965485 
	C136.320541,220.983398 173.123230,221.085602 209.924484,220.900360 
	C215.590118,220.871826 221.109406,219.157806 225.977081,214.471344 
z"/>
<path fill="#119303" opacity="1.000000" stroke="none" 
	d="
M1977.000000,299.531342 
	C1934.838867,300.000000 1892.677612,299.964172 1850.516724,300.067322 
	C1847.108521,300.075653 1845.251831,299.323822 1843.922363,295.835175 
	C1836.481812,276.309113 1828.754395,256.892059 1821.088135,237.452332 
	C1811.416016,212.926758 1801.698242,188.419159 1792.018921,163.896393 
	C1783.993042,143.562317 1775.991455,123.218582 1767.985352,102.876610 
	C1765.556396,96.705032 1763.148560,90.525131 1759.939209,84.593666 
	C1759.939209,156.204834 1759.939209,227.816025 1759.939209,299.713409 
	C1730.672729,299.713409 1701.608032,299.713409 1671.998413,299.713409 
	C1671.998413,200.450119 1671.998413,101.193718 1671.999268,1.468657 
	C1715.354248,1.000000 1758.708496,1.000000 1802.630249,1.355966 
	C1804.146484,3.914078 1805.151611,6.093913 1806.035400,8.321800 
	C1815.034302,31.007753 1824.031128,53.694550 1832.993042,76.395103 
	C1842.016113,99.250145 1851.011230,122.116203 1859.995605,144.986450 
	C1867.685547,164.561554 1875.327637,184.155502 1883.027466,203.726700 
	C1884.721802,208.032944 1886.571533,212.278061 1888.349731,216.551300 
	C1888.566528,216.464294 1888.783203,216.377289 1889.000000,216.290283 
	C1889.000000,144.526855 1889.000000,72.763428 1889.000000,1.000000 
	C1918.300171,1.000000 1947.600220,1.000000 1977.000000,1.000000 
	C1977.000000,100.354202 1977.000000,199.708450 1977.000000,299.531342 
z"/>
<path fill="#119303" opacity="1.000000" stroke="none" 
	d="
M666.531372,1.000000 
	C667.000366,73.414192 667.239807,145.829758 666.825806,218.241577 
	C666.727478,235.450516 664.484924,252.861130 652.924011,266.858246 
	C638.836426,283.914429 622.367981,297.758270 599.061890,299.958618 
	C585.184387,301.268799 571.264954,302.134552 557.182190,303.600037 
	C526.312439,304.000000 495.624878,304.000000 464.287781,303.599365 
	C454.897278,302.799225 446.107788,302.839783 437.428345,301.882599 
	C427.785278,300.819183 418.141022,299.294067 408.682800,297.151154 
	C397.831482,294.692566 389.647552,287.456909 381.010773,280.776825 
	C362.845032,266.726532 354.341644,247.881927 354.192780,225.825745 
	C353.686981,150.886810 353.999817,75.942352 354.000000,1.000000 
	C387.354218,1.000000 420.708466,1.000000 454.531799,1.468657 
	C455.000610,64.753609 454.962524,127.569954 455.038483,190.386154 
	C455.050659,200.455582 459.308960,205.926407 468.006134,209.360687 
	C471.847473,210.877502 476.179962,211.889389 480.285248,211.875504 
	C502.195648,211.801437 524.132812,211.879318 546.002014,210.758820 
	C556.498291,210.221069 565.275391,203.106705 565.184265,189.447693 
	C564.765259,126.634186 564.999878,63.816311 565.000000,1.000000 
	C598.687561,1.000000 632.375122,1.000000 666.531372,1.000000 
z"/>
<path fill="#119303" opacity="1.000000" stroke="none" 
	d="
M1509.531372,1.000009 
	C1515.499023,12.331638 1520.875000,23.724930 1526.516724,34.985043 
	C1570.390381,122.551910 1614.315430,210.093018 1658.223145,297.642914 
	C1658.853394,298.899658 1659.462891,300.166901 1660.521606,302.325409 
	C1654.375000,301.841370 1649.034180,301.078827 1643.690552,301.057129 
	C1615.198853,300.941406 1586.706543,300.986786 1558.214478,301.054260 
	C1555.376221,301.061005 1553.380615,300.649933 1551.875244,297.709381 
	C1544.589111,283.476929 1537.032227,269.383057 1529.444702,254.999924 
	C1526.290527,254.999924 1522.965942,254.999924 1519.641357,254.999924 
	C1471.987793,254.999924 1424.334106,255.051880 1376.681030,254.900604 
	C1372.896606,254.888596 1371.274658,256.106537 1370.016846,259.538696 
	C1364.819214,273.722046 1359.331177,287.799042 1353.980103,301.835693 
	C1319.170532,301.835693 1284.725708,301.835693 1249.656494,301.835693 
	C1254.989380,291.069427 1260.136475,280.681183 1265.280884,270.291565 
	C1277.113647,246.393936 1288.977783,222.511826 1300.767700,198.593109 
	C1311.980957,175.844360 1323.081787,153.040176 1334.294678,130.291214 
	C1346.083984,106.373024 1357.961548,82.498291 1369.775024,58.591938 
	C1379.141602,39.637115 1388.469482,20.663198 1397.907227,1.348851 
	C1435.020874,1.000000 1472.041870,1.000000 1509.531372,1.000009 
M1416.003540,173.520737 
	C1414.992065,175.838120 1413.980591,178.155502 1412.826538,180.799561 
	C1440.331787,180.799561 1467.393188,180.799561 1494.770752,180.799561 
	C1481.222412,149.498657 1467.705811,118.271072 1453.737671,86.000473 
	C1447.093750,101.564629 1441.113403,115.778419 1434.965576,129.919296 
	C1428.745361,144.226486 1422.359253,158.461487 1416.003540,173.520737 
z"/>
<path fill="#119303" opacity="1.000000" stroke="none" 
	d="
M1026.531372,1.000000 
	C1022.691528,8.144910 1018.494324,15.359764 1014.054688,22.422213 
	C997.749146,48.360233 981.396790,74.269012 964.995178,100.146355 
	C954.803040,116.226784 944.471924,132.219055 934.236938,148.272385 
	C924.180847,164.044952 914.109009,179.808319 904.222900,195.686996 
	C903.194580,197.338669 903.053650,199.744659 903.049377,201.801788 
	C902.980591,234.956009 903.000732,268.110413 903.000732,301.633606 
	C869.534912,301.633606 836.138916,301.633606 802.000000,301.633606 
	C802.000000,300.182709 802.000000,298.438995 802.000000,296.695282 
	C802.000000,268.038147 801.525757,239.368912 802.257690,210.730499 
	C802.513245,200.732117 799.330505,192.805862 794.360718,184.770233 
	C782.997009,166.396317 771.933105,147.836853 760.760986,129.344574 
	C747.008179,106.580727 733.259521,83.814369 719.527100,61.038246 
	C708.367554,42.529381 697.232300,24.005850 686.094849,5.483698 
	C685.356995,4.256722 684.690857,2.986643 683.995667,1.368314 
	C719.354248,1.000000 754.708435,1.000000 790.625610,1.347396 
	C811.628357,38.712475 832.068115,75.730164 852.672852,113.046593 
	C854.122314,110.771606 855.480286,108.777031 856.701355,106.701881 
	C865.684265,91.435387 874.615173,76.138290 883.610168,60.878937 
	C895.383850,40.905804 907.201355,20.958452 919.000000,1.000011 
	C954.687561,1.000000 990.375183,1.000000 1026.531372,1.000000 
z"/>
<path fill="#119303" opacity="1.000000" stroke="none" 
	d="
M1309.531372,1.000000 
	C1310.000000,27.801893 1310.000000,54.603786 1310.000000,81.833221 
	C1277.699341,81.833221 1245.637329,81.833221 1213.176392,81.833221 
	C1213.176392,155.311996 1213.176392,228.364609 1213.176392,301.709473 
	C1180.713745,301.709473 1148.650391,301.709473 1116.187012,301.709473 
	C1116.187012,228.732559 1116.187012,155.679642 1116.187012,82.254692 
	C1079.057495,82.254692 1042.323120,82.254692 1004.744690,82.254692 
	C1009.363953,74.630547 1013.567383,67.630569 1017.831055,60.667496 
	C1029.864014,41.016388 1041.921875,21.380405 1053.984985,1.369240 
	C1139.020874,1.000000 1224.041870,1.000000 1309.531372,1.000000 
z"/>
<path fill="#FFFFFF" opacity="1.000000" stroke="none" 
	d="
M564.531372,1.000000 
	C564.999878,63.816311 564.765259,126.634186 565.184265,189.447693 
	C565.275391,203.106705 556.498291,210.221069 546.002014,210.758820 
	C524.132812,211.879318 502.195648,211.801437 480.285248,211.875504 
	C476.179962,211.889389 471.847473,210.877502 468.006134,209.360687 
	C459.308960,205.926407 455.050659,200.455582 455.038483,190.386154 
	C454.962524,127.569954 455.000610,64.753609 455.000458,1.468657 
	C491.354218,1.000000 527.708435,1.000000 564.531372,1.000000 
z"/>
<path fill="#FFFFFF" opacity="1.000000" stroke="none" 
	d="
M353.531342,1.000000 
	C353.999817,75.942352 353.686981,150.886810 354.192780,225.825745 
	C354.341644,247.881927 362.845032,266.726532 381.010773,280.776825 
	C389.647552,287.456909 397.831482,294.692566 408.682800,297.151154 
	C418.141022,299.294067 427.785278,300.819183 437.428345,301.882599 
	C446.107788,302.839783 454.897278,302.799225 463.819092,303.599365 
	C311.164673,304.000000 158.329346,304.002838 5.494025,303.958588 
	C3.995922,303.958160 2.498002,303.333344 0.999999,302.500000 
	C72.978966,302.001862 144.959869,302.301270 216.935776,301.831543 
	C239.708633,301.682922 262.545135,299.256744 283.618622,289.616241 
	C302.637024,280.915924 314.566132,265.708252 318.847961,245.206345 
	C320.739716,236.148285 321.803162,226.754715 321.864410,217.504333 
	C322.164551,172.186203 322.043610,126.864944 321.974762,81.544945 
	C321.953827,67.763802 319.666046,54.252609 313.343658,41.982838 
	C306.215759,28.149710 295.518433,17.687540 280.626648,11.980545 
	C263.462555,5.402748 245.689774,2.175858 227.178314,1.398739 
	C269.020905,1.000000 311.041779,1.000000 353.531342,1.000000 
z"/>
<path fill="#FFFFFF" opacity="1.000000" stroke="none" 
	d="
M1888.531372,1.000000 
	C1889.000000,72.763428 1889.000000,144.526855 1889.000000,216.290283 
	C1888.783203,216.377289 1888.566528,216.464294 1888.349731,216.551300 
	C1886.571533,212.278061 1884.721802,208.032944 1883.027466,203.726700 
	C1875.327637,184.155502 1867.685547,164.561554 1859.995605,144.986450 
	C1851.011230,122.116203 1842.016113,99.250145 1832.993042,76.395103 
	C1824.031128,53.694550 1815.034302,31.007753 1806.035400,8.321800 
	C1805.151611,6.093913 1804.146484,3.914078 1803.098877,1.355966 
	C1831.354248,1.000000 1859.708496,1.000000 1888.531372,1.000000 
z"/>
<path fill="#FFFFFF" opacity="1.000000" stroke="none" 
	d="
M918.531372,1.000011 
	C907.201355,20.958452 895.383850,40.905804 883.610168,60.878937 
	C874.615173,76.138290 865.684265,91.435387 856.701355,106.701881 
	C855.480286,108.777031 854.122314,110.771606 852.672852,113.046593 
	C832.068115,75.730164 811.628357,38.712475 791.094299,1.347396 
	C833.354248,1.000000 875.708435,1.000000 918.531372,1.000011 
z"/>
<path fill="#FFFFFF" opacity="1.000000" stroke="none" 
	d="
M225.712830,214.733948 
	C221.109406,219.157806 215.590118,220.871826 209.924484,220.900360 
	C173.123230,221.085602 136.320541,220.983398 99.518326,220.965485 
	C99.208282,220.965332 98.898308,220.830063 98.298676,220.690430 
	C98.298676,175.042023 98.298676,129.335098 98.298676,83.244392 
	C99.623322,83.167336 101.054657,83.011902 102.486061,83.011353 
	C137.789764,82.997719 173.094070,82.896912 208.396698,83.092270 
	C215.046188,83.129066 222.127304,83.819618 226.308212,90.046371 
	C228.539047,93.368820 230.760300,97.545624 230.799255,101.359161 
	C231.144592,135.160599 231.053360,168.967239 230.934708,202.771805 
	C230.919235,207.181427 229.873184,211.525467 225.712830,214.733948 
z"/>
<path fill="#FFFFFF" opacity="1.000000" stroke="none" 
	d="
M1416.024658,173.124420 
	C1422.359253,158.461487 1428.745361,144.226486 1434.965576,129.919296 
	C1441.113403,115.778419 1447.093750,101.564629 1453.737671,86.000473 
	C1467.705811,118.271072 1481.222412,149.498657 1494.770752,180.799561 
	C1467.393188,180.799561 1440.331787,180.799561 1412.826538,180.799561 
	C1413.980591,178.155502 1414.992065,175.838120 1416.024658,173.124420 
z"/>
</svg>